<?xml version="1.0" encoding="UTF-8"?>
<!DOCTYPE svg PUBLIC "-//W3C//DTD SVG 1.1//EN" "http://www.w3.org/Graphics/SVG/1.1/DTD/svg11.dtd">
<svg xmlns="http://www.w3.org/2000/svg" version="1.1" width="863px" height="854px" style="shape-rendering:geometricPrecision; text-rendering:geometricPrecision; image-rendering:optimizeQuality; fill-rule:evenodd; clip-rule:evenodd" xmlns:xlink="http://www.w3.org/1999/xlink">
<g><path style="opacity:1" fill="#fcfcd7" d="M 519.5,-0.5 C 523.5,-0.5 527.5,-0.5 531.5,-0.5C 538.32,2.31078 543.653,6.97745 547.5,13.5C 545.255,17.7056 541.755,19.7056 537,19.5C 529.376,19.1879 523.043,16.1879 518,10.5C 515.689,6.37415 516.189,2.70748 519.5,-0.5 Z"/></g>
<g><path style="opacity:1" fill="#f0efce" d="M 413.5,23.5 C 421.314,27.1437 421.314,31.1437 413.5,35.5C 405.558,31.1355 405.558,27.1355 413.5,23.5 Z"/></g>
<g><path style="opacity:1" fill="#f9f9d5" d="M 657.5,38.5 C 665.846,38.4886 671.513,42.4886 674.5,50.5C 672.669,53.8736 670.003,55.707 666.5,56C 663.073,54.204 659.906,52.0373 657,49.5C 654.866,45.6471 655.033,41.9805 657.5,38.5 Z"/></g>
<g><path style="opacity:1" fill="#f4f4d1" d="M 84.5,75.5 C 91.6213,77.0586 92.9547,80.5586 88.5,86C 84.1628,87.4185 80.8295,86.2518 78.5,82.5C 80.5227,80.1472 82.5227,77.8138 84.5,75.5 Z"/></g>
<g><path style="opacity:1" fill="#fbfbd6" d="M 107.5,81.5 C 114.045,80.663 117.879,83.3297 119,89.5C 115.114,96.3865 109.614,101.553 102.5,105C 90.8704,106.678 88.3704,102.511 95,92.5C 98.1269,87.54 102.294,83.8733 107.5,81.5 Z"/></g>
<g><path style="opacity:1" fill="#f8f8d5" d="M 84.5,192.5 C 91.5376,192.682 94.0376,196.015 92,202.5C 90.2552,203.956 88.4219,205.289 86.5,206.5C 80.9768,204.701 79.1434,201.035 81,195.5C 82.1451,194.364 83.3117,193.364 84.5,192.5 Z"/></g>
<g><path style="opacity:1" fill="#fafad5" d="M 655.5,244.5 C 664.149,248.482 670.482,254.815 674.5,263.5C 670.811,269.172 666.144,270.005 660.5,266C 653.963,261.432 651.463,255.265 653,247.5C 654.045,246.627 654.878,245.627 655.5,244.5 Z"/></g>
<g><path style="opacity:1" fill="#f9f9d4" d="M 190.5,276.5 C 196.806,277.819 201.473,281.319 204.5,287C 200.035,294.317 193.535,298.484 185,299.5C 177.776,297.947 175.109,293.614 177,286.5C 179.167,284.333 181.333,282.167 183.5,280C 186.187,279.272 188.52,278.105 190.5,276.5 Z"/></g>
<g><path style="opacity:1" fill="#fafada" d="M 665.5,316.5 C 671.704,316.314 673.037,318.814 669.5,324C 665.945,325.123 663.945,323.789 663.5,320C 663.978,318.697 664.645,317.531 665.5,316.5 Z"/></g>
<g><path style="opacity:1" fill="#f6f6d2" d="M 140.5,361.5 C 144.637,361.146 148.637,361.646 152.5,363C 156.598,366.649 156.265,369.982 151.5,373C 144.607,375.984 138.941,374.151 134.5,367.5C 136.215,365.118 138.215,363.118 140.5,361.5 Z"/></g>
<g><path style="opacity:1" fill="#f8f8d4" d="M 597.5,391.5 C 603.247,390.866 606.58,393.366 607.5,399C 605.937,403.56 602.771,406.393 598,407.5C 594.578,406.376 592.078,404.209 590.5,401C 592.007,397.121 594.341,393.954 597.5,391.5 Z"/></g>
<g><path style="opacity:1" fill="#f4f4d2" d="M 788.5,449.5 C 791.659,449.481 794.326,450.648 796.5,453C 795.712,457.683 792.712,459.35 787.5,458C 786.743,456.488 785.743,455.154 784.5,454C 786.041,452.629 787.375,451.129 788.5,449.5 Z"/></g>
<g><path style="opacity:1" fill="#ededcc" d="M 30.5,467.5 C 34.3456,469.18 37.0123,472.013 38.5,476C 35.7425,479.466 33.2425,479.3 31,475.5C 29.3037,472.881 29.137,470.214 30.5,467.5 Z"/></g>
<g><path style="opacity:1" fill="#f9f9d5" d="M -0.5,491.5 C -0.5,489.167 -0.5,486.833 -0.5,484.5C 4.15317,477.843 8.9865,477.843 14,484.5C 15.0955,490.982 12.5955,495.315 6.5,497.5C 3.50674,496.167 1.17341,494.167 -0.5,491.5 Z"/></g>
<g><path style="opacity:1" fill="#fafad7" d="M 841.5,495.5 C 844.325,495.081 846.491,496.081 848,498.5C 849.932,502.863 851.432,507.03 852.5,511C 851.072,513.185 849.405,515.185 847.5,517C 842.452,517.97 839.618,515.803 839,510.5C 837.981,505.156 838.814,500.156 841.5,495.5 Z"/></g>
<g><path style="opacity:1" fill="#f4f3d2" d="M 862.5,497.5 C 862.5,499.167 862.5,500.833 862.5,502.5C 858.571,505.685 855.905,504.851 854.5,500C 856,498.5 857.5,497 859,495.5C 860.113,496.305 861.279,496.972 862.5,497.5 Z"/></g>
<g><path style="opacity:1" fill="#fafad6" d="M 591.5,507.5 C 601.711,509.371 609.044,515.037 613.5,524.5C 606.991,533.483 599.824,533.817 592,525.5C 586.422,519.424 586.255,513.424 591.5,507.5 Z"/></g>
<g><path style="opacity:1" fill="#f4f4d0" d="M 101.5,515.5 C 105.006,517.144 106.506,519.811 106,523.5C 104.58,530.335 100.747,535.335 94.5,538.5C 92.6588,536.489 90.9921,534.322 89.5,532C 90.9928,528.868 92.4928,525.701 94,522.5C 96.3959,519.933 98.8959,517.6 101.5,515.5 Z"/></g>
<g><path style="opacity:1" fill="#f6f6d3" d="M 555.5,611.5 C 557.205,612.535 558.872,612.535 560.5,611.5C 564.422,613.06 568.422,614.56 572.5,616C 574.797,617.263 575.63,619.097 575,621.5C 569.301,623.762 563.468,625.428 557.5,626.5C 552.388,625.621 547.555,623.955 543,621.5C 543.195,619.255 544.362,617.422 546.5,616C 549.724,614.641 552.724,613.141 555.5,611.5 Z"/></g>
<g><path style="opacity:1" fill="#ececcc" d="M 752.5,678.5 C 753.117,678.611 753.617,678.944 754,679.5C 755.969,685.321 754.135,688.488 748.5,689C 746.789,687.867 746.289,686.367 747,684.5C 749.04,682.63 750.873,680.63 752.5,678.5 Z"/></g>
<g><path style="opacity:1" fill="#f6f6d2" d="M 776.5,690.5 C 782.259,689.427 786.259,691.594 788.5,697C 786.268,702.231 782.435,705.731 777,707.5C 768.525,702.028 768.358,696.362 776.5,690.5 Z"/></g>
<g><path style="opacity:1" fill="#fafad5" d="M 102.5,722.5 C 107.281,724.096 111.447,726.763 115,730.5C 118.807,735.282 121.974,740.449 124.5,746C 121.887,756.149 116.22,758.816 107.5,754C 96.6054,744.411 94.9387,733.911 102.5,722.5 Z"/></g>
<g><path style="opacity:1" fill="#f9f9d4" d="M 204.5,735.5 C 210.344,736.5 214.678,739.666 217.5,745C 214.334,753.51 208.334,756.844 199.5,755C 195.034,751.901 193.534,747.735 195,742.5C 197.558,739.076 200.725,736.743 204.5,735.5 Z"/></g>
<g><path style="opacity:1" fill="#fdfdda" d="M 196.5,853.5 C 193.833,853.5 191.167,853.5 188.5,853.5C 184.33,844.842 186.997,841.008 196.5,842C 200.458,845.908 200.458,849.741 196.5,853.5 Z"/></g>
</svg>
